<svg width="18" height="12" viewBox="0 0 18 12" fill="none" xmlns="http://www.w3.org/2000/svg">
<path fill-rule="evenodd" clip-rule="evenodd" d="M17.1599 11.1901L14.7599 11.2276C14.7599 11.2276 14.2424 11.3326 13.5674 10.8526C12.6674 10.2226 11.8199 8.58005 11.1599 8.79755C10.4924 9.01505 10.5149 10.4926 10.5149 10.4926C10.5149 10.4926 10.5224 10.8076 10.3649 10.9726C10.1999 11.1601 9.8774 11.1901 9.8774 11.1901H8.8049C8.8049 11.1901 6.4349 11.3401 4.3499 9.11255C2.0624 6.69005 0.0523994 1.88255 0.0523994 1.88255C0.0523994 1.88255 -0.0676006 1.56755 0.0598994 1.41005C0.202399 1.24505 0.584899 1.23005 0.584899 1.23005L3.1574 1.21505C3.1574 1.21505 3.3974 1.26005 3.5699 1.38755C3.7124 1.49255 3.7949 1.69505 3.7949 1.69505C3.7949 1.69505 4.2074 2.76755 4.7624 3.74255C5.8349 5.64005 6.3374 6.05255 6.6974 5.85005C7.2299 5.55005 7.0724 3.17255 7.0724 3.17255C7.0724 3.17255 7.0799 2.31005 6.8024 1.92005C6.5849 1.62005 6.1799 1.53005 6.0074 1.50755C5.8649 1.48505 6.0974 1.14005 6.4049 0.99005C6.8699 0.75755 7.6874 0.74255 8.6474 0.75755C9.3974 0.76505 9.6149 0.81005 9.9074 0.88505C10.7924 1.10255 10.4924 1.95005 10.4924 3.97505C10.4924 4.62755 10.3799 5.53505 10.8374 5.84255C11.0324 5.97005 11.5199 5.86505 12.7199 3.77255C13.2899 2.78255 13.7174 1.62005 13.7174 1.62005C13.7174 1.62005 13.8149 1.41005 13.9574 1.32005C14.1074 1.23005 14.3024 1.25255 14.3024 1.25255L17.0099 1.23755C17.0099 1.23755 17.8199 1.14005 17.9549 1.51505C18.0974 1.90505 17.6549 2.82755 16.5449 4.33505C14.7299 6.81005 14.5274 6.57755 16.0349 8.00255C17.4749 9.36755 17.7674 10.0351 17.8199 10.1176C18.4199 11.1301 17.1599 11.2051 17.1599 11.2051V11.1901Z" fill="#767676"/>
</svg>
